<svg xmlns="http://www.w3.org/2000/svg" viewBox="0 0 64 64"><circle cx="25.82" cy="51.02" r="5" fill="none" stroke="#0a7d6e" stroke-width="2.6"/>
<circle cx="15.82" cy="43.76" r="5" fill="none" stroke="#0a7d6e" stroke-width="2.6"/>
<circle cx="12.00" cy="32.00" r="5" fill="none" stroke="#0a7d6e" stroke-width="2.6"/>
<circle cx="15.82" cy="20.24" r="5" fill="none" stroke="#0a7d6e" stroke-width="2.6"/>
<circle cx="25.82" cy="12.98" r="5" fill="none" stroke="#0a7d6e" stroke-width="2.6"/>
<rect x="35.0" y="9.5" width="7.4" height="7.4" rx="1.3" fill="#0a7d6e" opacity="1"/>
<rect x="44.2" y="9.5" width="7.4" height="7.4" rx="1.3" fill="#0a7d6e" opacity="0.35"/>
<rect x="35.0" y="18.7" width="7.4" height="7.4" rx="1.3" fill="#0a7d6e" opacity="1"/>
<rect x="44.2" y="18.7" width="7.4" height="7.4" rx="1.3" fill="#c53e1f" opacity="1"/>
<rect x="53.4" y="18.7" width="7.4" height="7.4" rx="1.3" fill="#0a7d6e" opacity="1"/>
<rect x="35.0" y="27.9" width="7.4" height="7.4" rx="1.3" fill="#0a7d6e" opacity="0.35"/>
<rect x="44.2" y="27.9" width="7.4" height="7.4" rx="1.3" fill="#0a7d6e" opacity="1"/>
<rect x="53.4" y="27.9" width="7.4" height="7.4" rx="1.3" fill="#c53e1f" opacity="1"/>
<rect x="35.0" y="37.1" width="7.4" height="7.4" rx="1.3" fill="#0a7d6e" opacity="1"/>
<rect x="44.2" y="37.1" width="7.4" height="7.4" rx="1.3" fill="#0a7d6e" opacity="1"/>
<rect x="53.4" y="37.1" width="7.4" height="7.4" rx="1.3" fill="#0a7d6e" opacity="0.35"/>
<rect x="35.0" y="46.3" width="7.4" height="7.4" rx="1.3" fill="#c53e1f" opacity="1"/>
<rect x="44.2" y="46.3" width="7.4" height="7.4" rx="1.3" fill="#0a7d6e" opacity="0.35"/></svg>